<svg height="512pt" viewBox="0 0 512 512" width="512pt" xmlns="http://www.w3.org/2000/svg"><path d="m474.792969 256c13.578125-9.277344 24.207031-22.28125 30.648437-37.828125 8.746094-21.117187 8.746094-44.375 0-65.492187-8.75-21.117188-25.195312-37.566407-46.3125-46.3125-15.550781-6.441407-32.257812-8.121094-48.417968-5.078126 3.042968-16.160156 1.363281-32.871093-5.078126-48.417968-8.75-21.117188-25.195312-37.566406-46.3125-46.3125-21.117187-8.746094-44.375-8.746094-65.492187 0-15.550781 6.441406-28.554687 17.066406-37.828125 30.648437-9.273438-13.582031-22.277344-24.207031-37.828125-30.648437-21.117187-8.746094-44.375-8.746094-65.492187 0-21.117188 8.746094-37.5625 25.195312-46.3125 46.3125-6.441407 15.546875-8.121094 32.257812-5.078126 48.417968-16.160156-3.042968-32.867187-1.363281-48.417968 5.078126-21.117188 8.746093-37.5625 25.195312-46.3125 46.3125-8.746094 21.117187-8.746094 44.375 0 65.492187 6.441406 15.546875 17.070312 28.550781 30.648437 37.828125-13.578125 9.273438-24.207031 22.277344-30.648437 37.828125-8.746094 21.117187-8.746094 44.375 0 65.492187 8.75 21.117188 25.195312 37.5625 46.3125 46.3125 10.558594 4.371094 21.652344 6.558594 32.746094 6.558594 5.242187 0 10.484374-.507812 15.671874-1.484375-3.042968 16.164063-1.363281 32.871094 5.078126 48.421875 8.75 21.117188 25.195312 37.5625 46.3125 46.308594 10.558593 4.375 21.652343 6.5625 32.746093 6.5625s22.1875-2.1875 32.746094-6.5625c15.550781-6.441406 28.554687-17.066406 37.828125-30.644531 9.273438 13.578125 22.277344 24.207031 37.828125 30.644531 10.558594 4.375 21.652344 6.5625 32.746094 6.5625s22.1875-2.1875 32.746093-6.5625c21.117188-8.746094 37.5625-25.191406 46.3125-46.308594 6.441407-15.550781 8.121094-32.257812 5.078126-48.421875 5.1875.976563 10.425781 1.484375 15.671874 1.484375 11.09375 0 22.1875-2.1875 32.746094-6.558594 21.117188-8.75 37.5625-25.195312 46.3125-46.3125 8.746094-21.117187 8.746094-44.375 0-65.492187-6.441406-15.550781-17.070312-28.554687-30.648437-37.828125zm-27.144531-121.917969c13.714843 5.679688 24.398437 16.359375 30.078124 30.074219 5.679688 13.714844 5.679688 28.820312 0 42.535156-5.679687 13.714844-16.363281 24.398438-30.078124 30.078125-7.039063 2.917969-14.441407 4.347657-22.011719 4.234375-.105469.003906-.207031-.003906-.3125-.003906h-95.839844c-1.949219-9.558594-5.730469-18.457031-10.949219-26.324219l67.875-67.875.144532-.148437c5.277343-5.425782 11.523437-9.65625 18.5625-12.570313 13.714843-5.683593 28.820312-5.683593 42.53125 0zm-191.648438 166.914063c-24.808594 0-44.996094-20.1875-44.996094-44.996094 0-24.8125 20.1875-44.996094 44.996094-44.996094s44.996094 20.183594 44.996094 44.996094c0 24.808594-20.1875 44.996094-44.996094 44.996094zm19.230469-236.648438c5.679687-13.714844 16.363281-24.394531 30.078125-30.074218 13.714844-5.683594 28.820312-5.683594 42.535156 0 13.714844 5.679687 24.394531 16.359374 30.074219 30.074218 5.683593 13.714844 5.683593 28.824219 0 42.535156-2.914063 7.039063-7.144531 13.285157-12.570313 18.5625-.070312.074219-.148437.140626-.21875.214844l-67.800781 67.804688c-7.871094-5.21875-16.769531-9-26.328125-10.945313v-96.15625c-.109375-7.570312 1.316406-14.976562 4.230469-22.015625zm-141.148438 0c5.679688-13.714844 16.363281-24.394531 30.074219-30.074218 13.714844-5.683594 28.824219-5.679688 42.539062 0 13.710938 5.679687 24.394532 16.359374 30.074219 30.074218 2.917969 7.039063 4.339844 14.445313 4.234375 22.015625.003906.101563-.003906.207031 0 .3125v95.839844c-9.5625 1.949219-18.460937 5.730469-26.328125 10.945313l-67.871093-67.871094-.152344-.148438c-5.425782-5.277344-9.65625-11.519531-12.570313-18.558594-5.683593-13.710937-5.683593-28.820312 0-42.535156zm-99.808593 99.808594c5.679687-13.714844 16.363281-24.394531 30.078124-30.074219 13.714844-5.683593 28.820313-5.683593 42.535157 0 7.035156 2.914063 13.28125 7.144531 18.558593 12.570313.074219.070312.140626.144531.214844.21875l67.804688 67.800781c-5.214844 7.871094-8.996094 16.769531-10.945313 26.328125h-96.15625c-7.566406.121094-14.972656-1.316406-22.011719-4.230469-13.714843-5.679687-24.394531-16.363281-30.078124-30.078125-5.679688-13.714844-5.679688-28.820312 0-42.535156zm30.078124 213.761719c-13.714843-5.679688-24.398437-16.363281-30.078124-30.078125-5.679688-13.714844-5.679688-28.820313 0-42.535156 5.679687-13.714844 16.363281-24.394532 30.078124-30.074219 6.796876-2.816407 13.945313-4.230469 21.238282-4.226563.363281 0 .726562-.003906 1.085937-.007812h95.839844c1.949219 9.558594 5.730469 18.457031 10.949219 26.328125l-67.875 67.871093-.144532.148438c-5.277343 5.429688-11.523437 9.65625-18.5625 12.570312-13.714843 5.683594-28.820312 5.683594-42.53125.003907zm172.417969 69.730469c-5.679687 13.714843-16.363281 24.394531-30.078125 30.078124-13.714844 5.679688-28.820312 5.679688-42.535156 0-13.714844-5.679687-24.394531-16.363281-30.074219-30.078124-5.683593-13.714844-5.683593-28.820313 0-42.535157 2.914063-7.035156 7.144531-13.28125 12.570313-18.558593.070312-.074219.148437-.144532.21875-.214844l67.800781-67.804688c7.871094 5.214844 16.769531 9 26.328125 10.945313v96.152343c.109375 7.570313-1.316406 14.976563-4.230469 22.015626zm141.148438 0c-5.679688 13.714843-16.363281 24.394531-30.074219 30.078124-13.714844 5.679688-28.824219 5.679688-42.539062 0-13.710938-5.679687-24.394532-16.363281-30.074219-30.078124-2.917969-7.039063-4.339844-14.445313-4.234375-22.011719-.003906-.105469.003906-.210938 0-.3125v-95.839844c9.5625-1.949219 18.460937-5.730469 26.328125-10.949219l67.871093 67.875.152344.144532c5.425782 5.277343 9.65625 11.523437 12.570313 18.5625 5.683593 13.710937 5.683593 28.816406 0 42.53125zm99.808593-99.808594c-5.679687 13.714844-16.363281 24.398437-30.078124 30.078125-13.714844 5.679687-28.820313 5.679687-42.535157 0-7.039062-2.914063-13.28125-7.144531-18.558593-12.570313-.074219-.074218-.144532-.148437-.21875-.21875l-67.804688-67.804687c5.21875-7.867188 9-16.765625 10.949219-26.324219h95.9375c.335937.003906.675781.003906 1.011719.003906 7.296874 0 14.429687 1.414063 21.21875 4.226563 13.714843 5.679687 24.394531 16.363281 30.074218 30.078125 5.683594 13.710937 5.683594 28.816406.003906 42.53125zm0 0"/></svg>